<?xml version="1.0" standalone="no"?>
<!DOCTYPE svg PUBLIC "-//W3C//DTD SVG 20010904//EN"
 "http://www.w3.org/TR/2001/REC-SVG-20010904/DTD/svg10.dtd">
<svg xmlns="http://www.w3.org/2000/svg"
 width="512.000000pt" height="512.000000pt" viewBox="0 0 512.000000 512.000000"
 preserveAspectRatio="xMidYMid meet">
<metadata>
Created by potrace 1.11, written by Peter Selinger 2001-2013
</metadata>
<g transform="translate(0.000000,512.000000) scale(0.100000,-0.100000)"
fill="#000000" stroke="none">
<path d="M3495 5112 c-133 -16 -299 -83 -407 -163 -124 -92 -246 -247 -347
-440 -114 -218 -209 -481 -347 -964 -19 -66 -41 -140 -49 -165 -8 -25 -42
-135 -75 -245 -100 -338 -172 -529 -289 -770 -76 -155 -183 -329 -253 -409
l-35 -40 -154 77 c-204 101 -267 121 -394 121 -77 1 -116 -4 -170 -21 -174
-55 -332 -199 -427 -388 -25 -49 -74 -188 -83 -233 -51 -272 -19 -521 105
-796 183 -408 574 -660 1042 -671 64 -2 138 1 165 6 26 5 59 11 72 14 183 33
459 204 604 373 18 20 37 42 42 48 6 6 21 27 35 47 14 20 27 37 30 37 3 0 21
-24 40 -52 41 -61 164 -186 241 -245 325 -250 704 -299 1094 -142 265 106 453
276 583 529 104 199 152 376 157 575 3 133 -8 227 -40 337 -105 364 -380 599
-680 582 -109 -6 -197 -35 -390 -131 -180 -88 -156 -91 -224 27 -117 200 -233
436 -300 610 -18 47 -37 94 -42 105 -36 84 -134 438 -145 525 -2 19 -9 58 -14
85 -5 28 -12 75 -15 105 -3 30 -8 80 -11 110 -8 77 -8 310 0 400 25 268 101
530 191 656 224 313 549 409 940 279 91 -31 221 -97 259 -132 46 -43 98 -73
126 -73 40 0 80 44 80 88 0 101 -299 274 -570 329 -71 14 -280 24 -345 15z
m-867 -1489 c2 -75 11 -180 17 -203 2 -8 7 -41 10 -72 7 -67 57 -309 81 -387
9 -30 17 -62 19 -70 8 -39 96 -288 129 -366 98 -229 254 -535 318 -627 11 -16
16 -28 11 -29 -4 0 -15 -2 -23 -3 -8 -2 -58 -6 -110 -10 -206 -15 -357 -69
-464 -166 l-55 -51 -66 56 c-117 99 -248 144 -470 161 -79 6 -123 10 -133 13
-2 1 21 36 50 79 107 152 217 358 293 547 15 39 33 84 41 100 23 55 75 200 80
224 3 13 9 32 14 42 9 16 101 320 196 649 52 178 52 180 56 180 2 0 4 -30 6
-67z"/>
</g>
</svg>
